<?xml version="1.0" encoding="UTF-8"?>
<svg width="30px" height="24px" viewBox="0 0 30 24" version="1.1" xmlns="http://www.w3.org/2000/svg" xmlns:xlink="http://www.w3.org/1999/xlink">
    <!-- Generator: Sketch 57.1 (83088) - https://sketch.com -->
    <title>Shape</title>
    <desc>Created with Sketch.</desc>
    <g id="Page-1" stroke="none" stroke-width="1" fill="none" fill-rule="evenodd">
        <g id="1.0_BetOnline_SubNavUpdate" transform="translate(-31000.00, -540.000000)" fill="#ffffff" fill-rule="nonzero">
            <g id="Group-66" transform="translate(5000.00, 540.000000)">
                <g id="Group-44" transform="translate(2000.00, 0.000000)">
                    <path d="M14.4253129,0.0038476524 C13.9120507,-0.0189747684 13.3870587,0.059102517 12.8749365,0.254894589 L3.58437829,3.77086165 C1.53597954,4.55043833 0.491725475,6.88676985 1.24417399,8.98269704 L4.67432166,18.4995472 C5.43721002,20.5991952 7.71417528,21.6717281 9.75894408,20.9030984 L12.0991484,20.0058104 L12.0991484,11.9794178 C12.0253225,12.023861 11.9479777,12.0574954 11.8741518,12.0923291 C11.0468244,12.4046272 10.1386183,11.9818194 9.83394294,11.1337868 C9.52926759,10.2965537 9.94175529,9.35965951 10.7690887,9.04733069 C11.2378315,8.87195976 11.7370539,8.93322012 12.1296279,9.19026948 C12.2163446,8.39750101 12.4823625,7.67558078 12.8842964,7.03776209 C12.5561614,6.86239116 12.2948654,6.56811573 12.1647874,6.18733717 C11.8577721,5.34290852 12.2702538,4.4168076 13.0999331,4.10088101 C13.9143607,3.78858294 14.8202269,4.21499158 15.1249022,5.04859926 C15.7342529,4.76992643 16.4209724,4.61256277 17.1405115,4.61256277 L18.6650882,4.61256277 L17.959619,2.64984503 C17.3877677,1.06790585 15.9627894,0.0697266785 14.4241729,0 L14.4253129,0.0038476524 Z M17.1405115,5.74427735 C14.9538148,5.74427735 13.1853718,7.55684232 13.1853718,9.79837126 L13.1853718,19.9459061 C13.1853718,22.187312 14.9536948,24 17.1405115,24 L27.0403604,24 C29.2270571,24 31,22.187435 31,19.9459061 L31,9.79837126 C31,7.55696532 29.2257971,5.74427735 27.0403604,5.74427735 L17.1405115,5.74427735 Z M6.47537418,6.7484528 C7.09177478,6.77607992 7.667166,7.17366526 7.89567251,7.80908544 C8.20034786,8.64631856 7.77731532,9.58321278 6.96052678,9.88471756 C6.1331994,10.1994141 5.22970319,9.77661249 4.92499784,8.92617527 C4.62032248,8.08894215 5.02812126,7.15204793 5.85546364,6.85054315 C6.05936753,6.77246556 6.27029731,6.73883416 6.47537418,6.74844357 L6.47537418,6.7484528 Z M18.5957893,9.69013089 C19.0012631,9.69013089 19.4078769,9.85108925 19.7160922,10.1670035 C20.3360027,10.8024237 20.3360027,11.8306457 19.7160922,12.4636674 C19.0996916,13.0990876 18.0954269,13.0990876 17.4754863,12.4636674 C16.8590858,11.831845 16.8590858,10.8024545 17.4754863,10.1670035 C17.7848416,9.8511077 18.1903154,9.69013089 18.5957893,9.69013089 Z M22.0655363,13.2466881 C22.4710101,13.2466881 22.875284,13.4076465 23.1858392,13.7235607 C23.8022398,14.3589809 23.8022398,15.3847737 23.1858392,16.0202246 C22.5659287,16.6556448 21.565174,16.6556448 20.9452334,16.0202246 C20.3288328,15.3884022 20.3288328,14.3590117 20.9452334,13.7235607 C21.2545887,13.4076649 21.6588925,13.2466881 22.0655363,13.2466881 L22.0655363,13.2466881 Z M8.97583603,13.6623065 C9.59223663,13.6923358 10.1629179,14.0899175 10.3914544,14.7181421 C10.6961298,15.552946 10.2707543,16.4922695 9.4563087,16.8045983 C8.62898132,17.1168964 7.72077518,16.6856815 7.41609983,15.850853 C7.11142448,15.0136199 7.52977109,14.0718979 8.35592549,13.7595999 C8.55982938,13.6815223 8.77075916,13.652694 8.97583603,13.6623034 L8.97583603,13.6623065 Z M25.5364834,16.8046598 C25.9419572,16.8046598 26.346231,16.9656182 26.6567863,17.2815324 C27.2731869,17.9169526 27.2731869,18.9451747 26.6567863,19.5781963 C26.0368757,20.2136165 25.033751,20.2136165 24.4161805,19.5781963 C23.7962699,18.9463739 23.7962699,17.9169834 24.4161805,17.2815324 C24.7243657,16.9656366 25.1310095,16.8046598 25.5364834,16.8046598 L25.5364834,16.8046598 Z" id="Shape"></path>
                </g>
            </g>
        </g>
    </g>
</svg>