<?xml version="1.0" encoding="UTF-8"?>
<svg width="30px" height="21px" viewBox="0 0 30 21" version="1.1" xmlns="http://www.w3.org/2000/svg" xmlns:xlink="http://www.w3.org/1999/xlink">
    <!-- Generator: Sketch 57.1 (83088) - https://sketch.com -->
    <title>Group 8</title>
    <desc>Created with Sketch.</desc>
    <g id="Page-1" stroke="none" stroke-width="1" fill="none" fill-rule="evenodd">
        <g id="1.0_BetOnline_SubNavUpdate" transform="translate(-600.000000, -541.000000)" fill="#90918D" fill-rule="nonzero">
            <g id="Group-50" transform="translate(578.000000, 541.000000)">
                <g id="Group-8" transform="translate(22.000000, 0.000000)">
                    <g id="Group-9">
                        <g id="np_laptop_1145595_000000">
                            <path d="M29.4702717,17.2611227 L19.3883152,17.2624457 C19.2915065,17.2624457 19.2061663,17.3299235 19.1794174,17.4265099 L18.896638,18.4783728 L11.1165293,18.4783728 L10.83375,17.4265099 C10.8082745,17.3299235 10.7216576,17.2624457 10.6248522,17.2624457 L0.542895652,17.2624457 C0.469017391,17.2624457 0.400232609,17.3008148 0.359471739,17.3669682 C0.31998587,17.4318006 0.31488913,17.5138293 0.345460435,17.5839524 L1.36066696,19.8583201 C1.38359511,19.9085982 1.42308326,19.9496125 1.47148435,19.9707819 L3.63816913,20.9392883 C3.66491837,20.9511963 3.69421696,20.9578117 3.72351261,20.9578117 L26.2857952,20.9578117 C26.3150922,20.9578117 26.3443898,20.9511963 26.3711387,20.9392883 L28.5378235,19.9707819 C28.5862278,19.9496125 28.6257137,19.9085982 28.6486409,19.8583201 L29.6638474,17.5839524 C29.6982398,17.511184 29.6931443,17.4304762 29.6536572,17.3656438 C29.6142098,17.3008127 29.54415,17.2611227 29.4702717,17.2611227 Z" id="Shape"></path>
                            <path d="M3.32967391,16.115129 L26.6830435,16.115129 C26.8027793,16.115129 26.8995848,16.0132519 26.8995848,15.8902055 L26.8995848,2.0691571 C26.8995848,0.952465161 26.0244978,0.043503871 24.9494217,0.043503871 L5.06333478,0.044826871 C3.9882587,0.044826871 3.11317174,0.953788161 3.11317174,2.0704801 L3.11317174,15.8901736 C3.11317174,16.0132201 3.20998043,16.115129 3.32971304,16.115129 L3.32967391,16.115129 Z M5.42504348,2.67004839 C5.42504348,2.54567758 5.52185217,2.44512484 5.64158478,2.44512484 L24.3723457,2.44512484 C24.4920815,2.44512484 24.588887,2.54568097 24.588887,2.67004839 L24.588887,13.4887742 C24.588887,13.613145 24.4920783,13.7136977 24.3723457,13.7136977 L5.64158478,13.7136977 C5.52184891,13.7136977 5.42504348,13.6118206 5.42504348,13.4887742 L5.42504348,2.67004839 Z" id="Shape"></path>
                        </g>
                        <g id="np_poker_1361643_000000" transform="translate(10.923913, 3.725806)">
                            <path d="M4.07636205,0 L0.611054493,3.66444066 C0.233745951,4.05044934 0,4.58844299 0,5.18340614 C0,6.35827763 0.912657731,7.31075365 2.03836637,7.31075365 C2.65976838,7.31075365 3.21620449,7.02016943 3.59017683,6.56249017 C3.59017683,6.56249017 3.5264649,8.058575 2.9530576,8.80645161 L5.19953941,8.80645161 C4.6265388,8.05861921 4.56242018,6.56249017 4.56242018,6.56249017 C4.93600065,7.02016943 5.49287099,7.31075365 6.11423064,7.31075365 C7.23996046,7.31075365 8.15217391,6.35825552 8.15217391,5.18340614 C8.15258705,4.58842088 7.91884047,4.05042723 7.54153193,3.66444066 L4.07636205,0 Z" id="Shape"></path>
                        </g>
                    </g>
                </g>
            </g>
        </g>
    </g>
</svg>