<?xml version="1.0" encoding="UTF-8"?>
<svg width="23px" height="23px" viewBox="0 0 23 23" version="1.1" xmlns="http://www.w3.org/2000/svg" xmlns:xlink="http://www.w3.org/1999/xlink">
    <!-- Generator: Sketch 57.1 (83088) - https://sketch.com -->
    <title>np_roulette-wheel_900334_000000</title>
    <desc>Created with Sketch.</desc>
    <g id="Page-1" stroke="none" stroke-width="1" fill="none" fill-rule="evenodd">
        <g id="1.0_BetOnline_SubNavUpdate" transform="translate(-395.000000, -540.000000)" fill="#90918D" fill-rule="nonzero">
            <g id="Group-48" transform="translate(369.000000, 540.000000)">
                <g id="np_roulette-wheel_900334_000000" transform="translate(26.000000, 0.000000)">
                    <path d="M15.1195015,11.1273148 L13.5763889,11.1273148 C13.3802719,10.5638319 12.9392378,10.0988996 12.3518519,9.90277778 L12.3518519,8.35966519 C12.6704274,8.16354823 12.8904522,7.79618222 12.8904522,7.38003556 C12.8904522,6.74288444 12.3757548,6.22916667 11.7395833,6.22916667 C11.1024322,6.22916667 10.5887144,6.74386407 10.5887144,7.38003556 C10.5887144,7.79618222 10.8087491,8.13964037 11.1273148,8.35966519 L11.1273148,9.90277778 C10.5638319,10.0988947 10.0988996,10.5399289 9.90277778,11.1273148 L8.35966519,11.1273148 C8.16354823,10.8087393 7.79618222,10.5887144 7.38003556,10.5887144 C6.74288444,10.5887144 6.22916667,11.1034119 6.22916667,11.7395833 C6.22916667,12.3767344 6.74386407,12.8904522 7.38003556,12.8904522 C7.79618222,12.8904522 8.13964037,12.6704176 8.35966519,12.3518519 L9.90277778,12.3518519 C10.0988947,12.9153348 10.5399289,13.380267 11.1273148,13.5763889 L11.1273148,15.1195015 C10.8087393,15.3156184 10.5887144,15.6829844 10.5887144,16.0991311 C10.5887144,16.7362822 11.1034119,17.25 11.7395833,17.25 C12.3767344,17.25 12.8904522,16.7353026 12.8904522,16.0991311 C12.8904522,15.6829844 12.6704176,15.3395263 12.3518519,15.1195015 L12.3518519,13.5763889 C12.9153348,13.3802719 13.380267,12.9392378 13.5763889,12.3518519 L15.1195015,12.3518519 C15.3156184,12.6704274 15.6829844,12.8904522 16.0991311,12.8904522 C16.7362822,12.8904522 17.25,12.3757548 17.25,11.7395833 C17.25,11.1024322 16.7353026,10.5887144 16.0991311,10.5887144 C15.6829844,10.5887144 15.3156233,10.8087491 15.1195015,11.1273148 Z" id="Shape"></path>
                    <path d="M11.5,0 C5.14947333,0 0,5.14947333 0,11.5 C0,17.8505267 5.14947333,23 11.5,23 C17.8505267,23 23,17.8505267 23,11.5 C23,5.14947333 17.8505267,0 11.5,0 Z M11.5,18.5623801 C7.60160348,18.5623801 4.43761994,15.3996226 4.43761994,11.5 C4.43761994,7.60160348 7.60135827,4.43761994 11.5,4.43761994 C15.3986417,4.43761994 18.5623801,7.60135827 18.5623801,11.5 C18.5623801,15.3986417 15.3986417,18.5623801 11.5,18.5623801 Z M15.8650369,4.19240693 C15.1543115,3.77574097 14.3937588,3.45676788 13.5843597,3.23646851 L13.5843597,1.66654122 C14.8104248,1.93666787 15.9627298,2.40218026 16.9685445,3.06405923 L15.8650369,4.19240693 Z M9.41568937,3.23646851 C8.60629025,3.43283018 7.82180477,3.77574097 7.13501215,4.19240693 L6.03155358,3.08894836 C7.03731929,2.42706938 8.18962429,1.93664335 9.41573841,1.69143034 L9.41568937,3.23646851 Z M4.19240693,7.13486503 C3.77574097,7.84559043 3.45676788,8.60614312 3.23646851,9.41554224 L1.66654122,9.41554224 C1.93666787,8.18947716 2.40218026,7.03717216 3.06405923,6.03135741 L4.19240693,7.13486503 Z M3.23646851,13.5842125 C3.43283018,14.3936117 3.77574097,15.1780971 4.19240693,15.8648898 L3.08894836,16.9683483 C2.42706938,15.9625826 1.93664335,14.8102776 1.6665167,13.5841635 L3.23646851,13.5842125 Z M7.13486503,18.807495 C7.84559043,19.2241609 8.60614312,19.543134 9.41554224,19.7634334 L9.41554224,21.3084716 C8.18947716,21.0383449 7.03717216,20.5728325 6.03135741,19.9109536 L7.13486503,18.807495 Z M13.5842125,19.7634334 C14.3936117,19.5670717 15.1780971,19.2241609 15.8648898,18.807495 L16.9683483,19.9109536 C15.9625826,20.5728325 14.8102776,21.0632586 13.5841635,21.3084716 L13.5842125,19.7634334 Z M18.807495,15.8650369 C19.2241609,15.1543115 19.543134,14.3937588 19.7634334,13.5843597 L21.3084716,13.5843597 C21.0383449,14.8104248 20.5728325,15.9627298 19.9109536,16.9685445 L18.807495,15.8650369 Z M19.7634334,9.41568937 C19.5670717,8.60629025 19.2241609,7.82180477 18.807495,7.13501215 L19.9109536,6.03155358 C20.5728325,7.03731929 21.0632586,8.18962429 21.3084716,9.41573841 L19.7634334,9.41568937 Z" id="Shape"></path>
                </g>
            </g>
        </g>
    </g>
</svg>