<?xml version="1.0" encoding="UTF-8"?>
<svg width="31px" height="22px" viewBox="0 0 31 22" version="1.1" xmlns="http://www.w3.org/2000/svg" xmlns:xlink="http://www.w3.org/1999/xlink">
    <!-- Generator: Sketch 57.1 (83088) - https://sketch.com -->
    <title>np_slot-machine_145000.000000</title>
    <desc>Created with Sketch.</desc>
    <g id="Page-1" stroke="none" stroke-width="1" fill="none" fill-rule="evenodd">
        <g id="1.0_BetOnline_SubNavUpdate" transform="translate(-501000.00, -540.000000)" fill="#90918D" fill-rule="nonzero">
            <g id="Group-49" transform="translate(498.000000, 540.000000)">
                <g id="np_slot-machine_145000.000000" transform="translate(3.000000, 0.000000)">
                    <path d="M1.81392869,7.0246237 L24.900491,7.0246237 L24.900491,19.9868498 L1.81392869,19.9868498 L1.81392869,7.0246237 Z M6.19886584,11.3187568 L6.91332074,12.6601229 L8.30106268,12.9880735 L7.35531745,14.1466637 L7.49699633,15.6910032 L6.19766614,15.0660142 L4.89833595,15.6910032 L5.04001483,14.1466637 L4.0942696,12.9880735 L5.48080254,12.6601229 L6.19886584,11.3187568 Z M8.97310971,8.81343293 L3.42567596,8.81343293 L3.42567596,18.1965267 L8.97186971,18.1965267 L8.97310971,8.81343293 Z M11.254517,12.9881699 L12.64105,12.6602192 L13.3567139,11.3188531 L14.0711688,12.6602192 L15.4589107,12.9881699 L14.5131655,14.14676 L14.6548444,15.6910996 L13.3555142,15.0661105 L12.056184,15.6910996 L12.1978629,14.14676 L11.254517,12.9881699 Z M10.584857,8.81343293 L10.584857,18.1965267 L16.1298107,18.1965267 L16.1310216,8.81343293 L10.584857,8.81343293 Z M18.4123341,12.9881699 L19.798867,12.6602192 L20.5145309,11.3188531 L21.2289858,12.6602192 L22.6167277,12.9881699 L21.6709825,14.14676 L21.8126614,15.6910996 L20.5133312,15.0661105 L19.214001,15.6910996 L19.3556799,14.14676 L18.4123341,12.9881699 Z M17.741465,8.81343293 L17.741465,18.1965267 L23.2876588,18.1965267 L23.2888696,8.81343293 L17.741465,8.81343293 Z M20.3207505,5.01099183 C17.1382998,-0.296804424 9.57494195,-0.299557074 6.39373127,5.01099183 L0,5.01099183 L0,22 L26.7157217,22 L26.7157217,17.0335323 L27.6638849,17.0335323 L27.6638849,14.512071 L30.4417558,14.512071 L30.4405446,2.9072451 C30.7808306,2.60886134 31,2.14651602 31,1.62767601 C31,0.72848867 30.3424609,0 29.5335493,0 C28.7234287,0 28.0670986,0.72848867 28.0670986,1.62767601 C28.0670986,2.14648161 28.2862773,2.6088579 28.626554,2.9072451 L28.626554,12.4985079 L27.6626428,12.4985079 L27.6626428,9.97838857 L26.7144796,9.97838857 L26.7144796,5.01054452 L20.3207505,5.01099183 Z" id="Shape"></path>
                </g>
            </g>
        </g>
    </g>
</svg>